<?xml version="1.0" encoding="utf-8"?>
<!-- Generator: Adobe Illustrator 16.0.4, SVG Export Plug-In . SVG Version: 6.00 Build 0)  -->
<!DOCTYPE svg PUBLIC "-//W3C//DTD SVG 1.1//EN" "http://www.w3.org/Graphics/SVG/1.1/DTD/svg11.dtd">
<svg version="1.1" id="Layer_1" xmlns="http://www.w3.org/2000/svg" xmlns:xlink="http://www.w3.org/1999/xlink" x="0px" y="0px"
	 width="43px" height="50px" viewBox="0 0 43 50" enable-background="new 0 0 43 50" xml:space="preserve">
<g>
	<g>
		<path fill="#FD7A45" d="M34.773,10.246c-1.054,0-1.91-0.855-1.91-1.912L30.395,0H0v50h43V12.742L34.773,10.246z"/>
	</g>
	<path fill="#CC5F36" d="M43,12.742L30.395,0c0,0-0.349,10.627,0,11.076s0.202,1.666,3.93,1.666S43,12.742,43,12.742z"
		/>
	<g>
		<path fill="#FFFFFF" d="M9.524,37.88v-9.306h3.51c0.618,0,1.09,0.029,1.416,0.089c0.457,0.076,0.84,0.221,1.149,0.435
			s0.558,0.513,0.746,0.898c0.188,0.385,0.283,0.808,0.283,1.27c0,0.791-0.252,1.461-0.755,2.009s-1.414,0.822-2.729,0.822h-2.387
			v3.783H9.524z M10.755,32.998h2.406c0.795,0,1.36-0.147,1.695-0.444c0.334-0.296,0.501-0.713,0.501-1.25
			c0-0.39-0.098-0.723-0.295-1c-0.196-0.277-0.456-0.46-0.777-0.549c-0.208-0.056-0.59-0.083-1.149-0.083h-2.38V32.998z"/>
		<path fill="#FFFFFF" d="M18.014,37.88v-9.306h3.206c0.724,0,1.276,0.044,1.657,0.133c0.533,0.123,0.988,0.345,1.365,0.667
			c0.491,0.414,0.858,0.944,1.101,1.59c0.244,0.646,0.365,1.383,0.365,2.212c0,0.707-0.083,1.333-0.248,1.879
			s-0.376,0.998-0.635,1.355s-0.541,0.639-0.847,0.845c-0.307,0.205-0.677,0.36-1.111,0.466c-0.434,0.106-0.932,0.159-1.495,0.159
			H18.014z M19.246,36.781h1.987c0.614,0,1.095-0.057,1.444-0.171c0.35-0.114,0.627-0.275,0.835-0.482
			c0.292-0.292,0.52-0.685,0.683-1.178c0.163-0.493,0.244-1.091,0.244-1.793c0-0.974-0.16-1.722-0.479-2.244
			c-0.319-0.522-0.708-0.873-1.165-1.051c-0.33-0.127-0.861-0.19-1.593-0.19h-1.955V36.781z"/>
		<path fill="#FFFFFF" d="M27.449,37.88v-9.306h6.278v1.098H28.68v2.882h4.367v1.099H28.68v4.228H27.449z"/>
	</g>
</g>
<g>
</g>
</svg>
